<?xml version="1.0" encoding="UTF-8" standalone="no"?>
<!DOCTYPE svg PUBLIC "-//W3C//DTD SVG 1.1//EN" "http://www.w3.org/Graphics/SVG/1.1/DTD/svg11.dtd">
<svg version="1.1" xmlns="http://www.w3.org/2000/svg" xmlns:xlink="http://www.w3.org/1999/xlink" preserveAspectRatio="xMidYMid meet" viewBox="0 0 640 640" width="640" height="640"><defs><path d="M285.32 164.33C285.32 164.33 156.6 188.58 102.5 289.32C48.39 390.06 63.32 475.88 85.71 508.53C108.09 541.17 176.18 564.49 256.4 532.78C336.62 501.06 397.25 503.86 435.5 510.39C473.74 516.92 519.45 502 525.04 457.22C530.64 412.45 528.77 384.47 550.23 364.88C571.68 345.29 606.19 320.11 596.87 277.2C587.54 234.29 549.3 206.31 501.72 221.23C454.15 236.16 436.43 248.28 410.31 232.42C384.19 216.57 384.19 138.21 285.32 164.33" id="a1qw9fALu2"></path><path d="M599.38 393.09C592.03 402.71 579.1 405.19 570.5 398.63C561.91 392.06 560.89 378.94 568.24 369.32C575.59 359.69 588.51 357.21 597.11 363.78C605.71 370.35 606.72 383.47 599.38 393.09" id="apGwdZz7a"></path><path d="M479.86 560.29C476.62 555.35 471.86 547.04 475.36 542.29C477.23 539.76 482.23 529.75 484.36 525.8C492.23 511.17 501.23 485.31 493.36 444.82C485.48 404.33 478.68 368.77 480.61 354.1C485.03 320.51 502.87 267.11 508.73 249.51C510.38 244.55 508.55 239.03 504.16 236.19C463.99 210.19 433.68 293.97 428.35 319.65C427.02 326.02 425.96 332.77 421.88 337.84C415.22 346.1 403.03 346.99 392.46 345.95C383.15 345.02 373.96 343.13 364.79 341.24C327.36 333.54 290.11 321.84 257.22 301.57C246.9 295.21 236.97 288.03 225.8 283.31C218.16 280.08 201.62 274.61 193.67 279.67C187.09 283.85 189.91 300.41 189.7 308.36C191.95 312.11 209.95 342.1 212.2 345.85C212.2 345.85 188.95 351.85 163.46 358.6C170.21 370.59 204.7 399.08 204.7 399.08C204.7 399.08 193.7 402.08 151.72 405.08C157.71 426.83 192.7 453.82 192.7 453.82C192.7 453.82 192.7 453.82 145.47 464.31C149.97 483.81 158.96 488.31 204.7 517.55C209.56 525.62 214.6 532.81 219.68 539.22C231.83 556.31 246.81 568.22 259.84 576.2C277.38 587.47 290.17 590.27 290.17 590.27C292.22 595.32 302.47 620.56 320.91 666L547.34 665.25L479.86 560.29" id="bj8vbJxp8"></path><path d="M467.37 129.66L456.95 120.03L215.02 529.33L213.84 540.75L210.7 543.27L204.63 546.91L204.1 547.8C211.59 553.95 215.75 557.37 216.58 558.05C218.87 560.43 222.08 561.93 225.67 561.93C245.09 561.93 400.4 561.93 419.81 561.93C426.29 561.93 431.72 557.03 432.39 550.58C436.61 509.76 470.38 183.23 474.6 142.41C475.18 136.86 472.19 134.48 467.37 129.66" id="aqbJDO0L8"></path><path d="M406.75 551.43C290.27 551.43 225.56 551.43 212.62 551.43C205.12 551.43 199.27 544.95 200.04 537.49C204.26 496.57 238.03 169.16 242.25 128.24C242.92 121.79 248.35 116.89 254.83 116.89C274.25 116.89 429.55 116.89 448.97 116.89C456.46 116.89 462.31 123.37 461.55 130.83C457.32 171.76 423.55 499.16 419.33 540.09C418.66 546.53 413.23 551.43 406.75 551.43" id="a5U8fiduCu"></path><path d="M436.96 130.96L404.55 130.96C402.13 136.49 400.79 139.56 400.52 140.18C398.25 145.36 393.13 148.71 387.47 148.71C379.18 148.71 312.85 148.71 304.56 148.71C301.15 148.71 298.12 146.53 297.04 143.29C296.76 142.47 295.39 138.36 292.93 130.96C275.25 130.96 265.42 130.96 263.46 130.96C257.49 130.96 252.48 135.48 251.87 141.42C247.92 179.99 216.32 488.57 212.37 527.14C211.66 534.01 217.05 539.99 223.96 539.99C241.31 539.99 380.11 539.99 397.46 539.99C403.43 539.99 408.44 535.47 409.05 529.53C413 490.96 444.61 182.38 448.56 143.81C449.26 136.94 443.87 130.96 436.96 130.96" id="b2PNLsO63r"></path><path d="M228.78 269.42C215.2 256.43 186.74 256.89 176.51 272.45C170.72 281.27 167.59 293.09 173.26 302.14C179.21 311.61 207.7 320.11 221.19 315.61C227.39 313.55 229.14 311.56 231.64 305.52C236.35 294.13 238.42 278.64 228.78 269.42" id="a5gkD7YTaU"></path><path d="M211.7 319.11C181.96 318.09 172.02 303.86 171.61 303.26C170.99 302.34 171.23 301.1 172.15 300.48C173.06 299.86 174.29 300.1 174.92 301.01C174.96 301.07 177.26 304.34 182.89 307.69C188.12 310.8 197.38 314.62 211.77 315.12C226.56 315.11 230.75 302.63 230.79 302.51C231.13 301.45 232.26 300.88 233.3 301.22C234.35 301.55 234.93 302.68 234.59 303.73C234.54 303.88 229.44 319.11 211.7 319.11" id="c2TAe75jm5"></path><path d="M219.69 277.12C219.69 277.12 211.2 278.62 208.7 286.62C206.2 294.62 206.2 300.62 210.7 303.12C211.3 301.38 214.3 292.72 219.69 277.12" id="beN7pkNPq"></path><path d="M221.77 328.9C211.32 319.32 195.3 313.64 183.02 315.66C165.73 318.5 155.31 336.42 160.91 352.53C167.13 370.43 208.45 385.34 222.24 376.24C232.07 369.75 234.86 355.43 231.71 344.08C230.15 338.45 226.54 333.26 221.77 328.9" id="d9vqFYCPL"></path><path d="M211.46 380.93C206.18 380.93 199.94 379.79 192.61 377.5C168.05 369.83 162.14 357.45 161.9 356.93C161.44 355.93 161.88 354.74 162.88 354.28C163.88 353.83 165.06 354.26 165.52 355.26C165.6 355.43 171.18 366.62 193.8 373.69C204.6 377.06 213 377.8 218.75 375.89C219.8 375.54 220.93 376.1 221.28 377.15C221.63 378.19 221.06 379.33 220.01 379.67C217.5 380.51 214.66 380.93 211.46 380.93" id="bZDzngaa5"></path><path d="M225.69 345.1C221.19 358.3 218.69 365.63 218.2 367.1C218.2 367.1 208.35 366.86 210.7 355.1C213.7 340.1 225.69 345.1 225.69 345.1" id="i1iA8wnoLD"></path><path d="M214.04 386.22C198.62 376.56 171.16 363.92 157.47 382C151.48 389.92 149.27 400.19 152.57 409.69C160.59 432.73 209.08 450.06 225.8 428.96C231.3 422.01 232.89 412.16 229.84 403.84C227.27 396.81 221.74 391.18 215.46 387.12C215 386.83 214.52 386.53 214.04 386.22" id="c6u9zOZxu"></path><path d="M204.62 441.09C197.22 441.09 189.38 439.15 181.81 435.36C160.6 424.75 151.31 411.38 150.92 410.81C150.3 409.9 150.54 408.66 151.44 408.04C152.36 407.42 153.6 407.65 154.22 408.56C154.31 408.69 163.38 421.68 183.6 431.79C197.3 438.64 208.16 437.37 213.41 436C214.48 435.73 215.57 436.36 215.85 437.43C216.13 438.5 215.49 439.59 214.42 439.87C211.29 440.68 208 441.09 204.62 441.09" id="a5eAK5ijim"></path><path d="M218.68 404.92C215.42 418.47 213.62 426 213.26 427.51C213.26 427.51 203.43 428.19 204.68 416.26C206.27 401.05 218.68 404.92 218.68 404.92" id="dx66mFqE"></path><path d="M205.73 443.51C194.28 439.77 177.99 432.38 166.17 435.14C149.9 438.94 141.06 457.14 147.37 472.61C155.14 491.68 202 503.23 215.8 499.83C229.6 496.43 242.69 454.83 205.73 443.51" id="b2COvcYGkS"></path><path d="M208.02 503.13C200.92 503.13 192.07 501.27 181.05 497.44C156.2 488.82 150.28 480.02 150.04 479.65C149.44 478.72 149.71 477.48 150.63 476.88C151.55 476.29 152.78 476.55 153.38 477.46C153.49 477.61 159.19 485.63 182.36 493.67C193.57 497.56 202.34 499.34 209.15 499.12C210.24 499.05 211.18 499.95 211.21 501.05C211.25 502.16 210.38 503.08 209.28 503.11C208.87 503.13 208.45 503.13 208.02 503.13" id="i18YBmlZXF"></path><path d="M217.18 464.9C213.92 478.45 212.12 485.98 211.76 487.49C211.76 487.49 201.93 488.18 203.18 476.24C204.77 461.04 217.18 464.9 217.18 464.9" id="aQHHv9USr"></path><path d="M227.6 160.04L208.8 164.06L204.78 145.26L188.74 148.69L192.76 167.49L173.96 171.52L177.39 187.55L196.2 183.53L200.22 202.33L216.26 198.9L212.23 180.1L231.03 176.07L227.6 160.04" id="a2jBKMo1G4"></path><path d="M218.88 116.21L206.99 114.28L208.93 102.39L198.79 100.75L196.85 112.63L184.97 110.7L183.32 120.84L195.21 122.77L193.27 134.66L203.41 136.31L205.34 124.42L217.23 126.36L218.88 116.21" id="bGgzj6PY"></path><path d="M415.78 132.97C409.07 135.52 405.44 142.33 407.67 148.18C409.89 154.03 417.13 156.7 423.84 154.15C425.56 153.49 434.19 150.21 449.72 144.3L441.66 123.11L415.78 132.97" id="b1UHIvi5k5"></path><path d="M484.17 119.06C481.94 113.21 474.7 110.54 467.99 113.09C466.24 113.76 457.46 117.1 441.66 123.11L449.72 144.3C465.52 138.28 474.3 134.94 476.06 134.27C482.76 131.72 486.39 124.91 484.17 119.06" id="azooOSV7c"></path><path d="M442.22 161.79C437.59 160.92 433.13 163.98 432.26 168.61C431.4 173.24 434.46 177.7 439.09 178.56C440.28 178.79 446.24 179.9 456.98 181.9L460.1 165.12L442.22 161.79" id="b1fTC2ma7V"></path><path d="M485.13 178.48C486 173.84 482.94 169.38 478.31 168.52C477.09 168.29 471.03 167.16 460.1 165.12L456.98 181.9C467.9 183.94 473.97 185.07 475.18 185.3C479.81 186.16 484.27 183.11 485.13 178.48" id="c1QcRPaitO"></path><path d="M313.54 73.85C313.54 73.85 317.03 66.16 333.82 67.56C350.61 68.96 366.01 77.35 372.3 98.34C378.6 119.33 379.3 141.01 380.7 153.6C382.1 166.2 384.19 168.3 400.28 171.79C416.37 175.29 432.47 174.59 437.36 198.38C442.26 222.16 424.77 252.95 424.77 252.95C410.29 252.95 294.44 252.95 279.96 252.95C279.96 252.95 269.46 233.36 263.17 210.97C256.87 188.58 261.07 177.39 267.36 166.2C273.66 155.01 275.06 155.01 270.16 141.01C265.26 127.02 261.07 113.03 268.76 96.94C276.46 80.85 293.95 69.65 313.54 73.85" id="a2DMLH1iKi"></path><path d="M334.31 149.72C337.33 146.78 340.32 143.02 343.15 138.21C344.26 136.33 345.23 134.32 346.09 132.22C349.23 121.55 344.65 107.54 339.42 104.63C333.12 101.14 321.93 102.54 314.23 94.14C310.62 90.2 310.25 85.48 310.87 81.59C304.96 84.14 287.73 94.22 288.12 125.16C288.35 144.14 296.21 152.55 303.82 156.16C304.15 159.32 305.75 175.1 308.64 203.51C291.29 204.07 281.65 204.38 279.72 204.44C279.72 204.44 273.19 250.15 302.11 257.61C331.03 265.07 363.67 242.69 362.74 201.64C361.25 201.7 353.79 202.02 340.35 202.58L334.31 149.72" id="e7tH6l8XPV"></path><path d="M311.27 157.34C306.71 157.34 303.6 156.58 303.39 156.53C303.04 156.44 302.82 156.08 302.91 155.72C303 155.36 303.36 155.14 303.72 155.23C303.79 155.25 311.52 157.12 320.38 154.91C329.1 152.73 331.17 150.85 331.19 150.83C331.45 150.58 331.87 150.58 332.13 150.84C332.38 151.11 332.38 151.52 332.12 151.78C332.04 151.86 329.93 153.89 320.71 156.2C317.25 157.06 314 157.34 311.27 157.34" id="a2MSS18iRv"></path><path d="M232.38 216.57C234.89 213.79 238.36 212.07 242.08 211.74C246.52 211.19 268.7 208.45 308.64 203.51C361.95 201.69 391.56 200.68 397.49 200.48C403.04 200.17 406.92 203.88 409.38 208.87C413.73 216.97 435.5 257.47 474.67 330.37L554.89 269.04C556.57 251.55 557.5 241.83 557.69 239.89C557.69 239.89 565.15 240.82 566.08 256.68C581.01 246.42 602.46 248.28 602.46 248.28C600.6 249.12 585.67 255.84 583.81 256.68C598.73 252.95 609.93 254.81 609.93 254.81C597.8 259.48 588.47 263.21 588.47 263.21C602.46 261.34 609.93 266 609.93 266C598.73 268.8 585.67 271.6 585.67 271.6C587.63 271.79 603.3 273.28 605.26 273.47C587.54 280.93 572.61 283.73 572.61 283.73C572.61 283.73 507.32 394.49 459.75 404.76C428.03 375.84 405.65 329.43 405.65 329.43C405.96 334.84 407.51 361.89 410.31 410.58L410.31 520.65L242.41 519.72C233.04 400.79 227.83 334.72 226.79 321.5C226.79 321.5 157.76 372.81 134.44 374.67C96.67 315.21 129.55 192.32 129.55 192.32C123.02 196.05 116.49 187.65 115.55 178.32C114.62 169 138.87 160.6 138.87 160.6C138.87 160.6 138.87 135.42 148.2 131.68C148.2 134.86 148.2 160.23 148.2 163.4C154.73 168.06 156.6 169 154.73 173.66C152.87 178.32 150.07 184.85 150.07 184.85C150.89 192 155.01 227.76 162.43 292.12L232.38 216.57" id="dVsDFMmaW"></path><path d="M137.58 185.95C137.33 185.95 137.1 185.81 136.98 185.57C135.95 183.43 135.82 181.29 136.59 179.24C137.83 175.93 141.11 173.63 143.14 172.47C140.85 171.85 137.11 170.38 135.67 167.27C135.21 166.26 135.47 165.52 135.77 165.07C137.63 162.31 147.15 162.68 148.23 162.73C148.6 162.75 148.88 163.06 148.87 163.43C148.85 163.8 148.52 164.1 148.17 164.06C144.37 163.88 137.96 164.2 136.88 165.81C136.76 165.98 136.66 166.24 136.88 166.71C138.66 170.57 145.13 171.55 145.19 171.56C145.49 171.6 145.72 171.83 145.76 172.13C145.8 172.42 145.63 172.71 145.36 172.83C145.3 172.85 139.45 175.41 137.84 179.71C137.2 181.41 137.32 183.19 138.18 185C138.34 185.33 138.2 185.73 137.87 185.89C137.78 185.93 137.68 185.95 137.58 185.95" id="ccnQTkIEO"></path><path d="M134.64 186.93C134.46 186.93 134.28 186.86 134.15 186.71C128.47 180.37 129.36 164.98 129.4 164.33C129.43 163.97 129.73 163.68 130.11 163.71C130.48 163.73 130.75 164.05 130.73 164.42C130.72 164.57 129.83 179.89 135.14 185.82C135.38 186.09 135.36 186.51 135.09 186.76C134.96 186.87 134.8 186.93 134.64 186.93" id="kombqqpBq"></path><path d="M130.07 189.87C129.95 189.87 129.83 189.84 129.73 189.78C120.64 184.39 122.46 168.56 122.55 167.89C122.59 167.52 122.92 167.26 123.29 167.31C123.65 167.35 123.91 167.68 123.87 168.05C123.85 168.2 122.06 183.69 130.41 188.63C130.72 188.82 130.83 189.23 130.64 189.54C130.52 189.75 130.29 189.87 130.07 189.87" id="a3oTSRQxiU"></path><path d="M126.49 193.97C125.44 193.97 124.15 193.74 122.62 193.08C117.79 191.02 115.78 182.85 115.7 182.5C115.61 182.14 115.83 181.78 116.19 181.7C116.55 181.61 116.91 181.83 116.99 182.19C117.01 182.27 118.93 190.06 123.14 191.86C127.19 193.6 129 191.91 129.08 191.84C129.34 191.59 129.76 191.59 130.02 191.85C130.27 192.11 130.27 192.52 130.02 192.78C129.95 192.85 128.81 193.97 126.49 193.97" id="a6pNgGcZP"></path><path d="M567.64 276.93C567.45 276.93 567.25 276.85 567.12 276.68C566.89 276.39 566.94 275.98 567.22 275.75C570.73 272.94 567.14 261.2 565.46 256.92C565.38 256.7 565.42 256.44 565.57 256.25C565.73 256.07 565.97 255.98 566.21 256.02C566.38 256.05 583.18 259.38 585.09 273.38C585.14 273.74 584.88 274.08 584.52 274.13C584.16 274.17 583.82 273.92 583.77 273.56C582.28 262.63 570.89 258.64 567.15 257.62C568.59 261.61 572.35 273.35 568.06 276.79C567.93 276.88 567.79 276.93 567.64 276.93" id="b5mccH7TY7"></path><path d="M293.95 201.88C293.95 201.88 286.95 243.85 306.54 247.35C326.13 250.85 351.31 234.06 352.01 199.08C366.01 197.68 385.59 196.98 385.59 196.98C385.62 219.86 385.73 334.24 385.94 540.12C321.09 540.19 285.06 540.23 277.86 540.24C277.86 540.24 264.57 229.16 266.66 204.67C279.96 203.28 293.95 201.88 293.95 201.88" id="b6swoRQhF"></path><path d="M300.94 412.37C300.61 412.37 300.33 412.12 300.28 411.79C300.23 411.42 300.49 411.09 300.86 411.04C307.98 410.13 364.96 402.81 372.08 401.89C372.43 401.85 372.78 402.1 372.83 402.47C372.87 402.83 372.62 403.17 372.25 403.21C365.13 404.13 308.15 411.45 301.03 412.36C301 412.36 300.97 412.37 300.94 412.37" id="c5dL5QNhwk"></path><path d="M279.96 203.28C279.96 203.28 287.18 474.95 299.31 540.24C294.77 540.24 272.07 540.24 231.22 540.24C226.18 413.2 223.38 342.62 222.82 328.5C222.82 328.5 151 378.64 133.28 377C104.36 329.9 112.76 257.84 116.95 209.57C145.64 202.58 153.33 199.78 153.33 199.78C154.05 205.62 157.62 234.85 164.06 287.46C200.44 246.18 220.65 223.25 224.69 218.67C224.69 218.67 228.37 209.64 244.98 206.77C265.26 203.28 279.96 203.28 279.96 203.28" id="b3K9B9GuaB"></path><path d="M145.64 326.37C145.59 326.37 145.55 326.36 145.5 326.35C145.14 326.28 144.91 325.93 144.98 325.57C149.17 305.36 163.39 287.23 163.54 287.05C163.76 286.76 164.18 286.71 164.47 286.94C164.76 287.16 164.81 287.58 164.58 287.87C164.44 288.05 150.4 305.94 146.29 325.84C146.22 326.15 145.94 326.37 145.64 326.37" id="de0I8H7p1"></path><path d="M112.42 278.08C112.06 278.08 111.77 277.8 111.76 277.43C111.11 248.31 116.24 209.87 116.29 209.48C116.33 209.22 116.52 209 116.77 208.93C118.22 208.53 129.75 205.3 131.19 204.9C131.55 204.8 131.92 205.01 132.01 205.36C132.11 205.72 131.91 206.08 131.55 206.18C130.15 206.57 118.96 209.7 117.56 210.09C116.99 214.42 112.48 250.06 113.09 277.4C113.1 277.77 112.81 278.08 112.44 278.08C112.43 278.08 112.43 278.08 112.42 278.08" id="b3VAa0yYw"></path><path d="M222.82 329.17C222.82 329.17 222.81 329.17 222.81 329.17C222.44 329.16 222.15 328.85 222.16 328.49C222.23 325.34 222.77 300.16 222.84 297.01C222.85 296.64 223.19 296.36 223.52 296.36C223.89 296.37 224.18 296.67 224.17 297.04C224.11 300.18 223.56 325.37 223.49 328.52C223.48 328.88 223.18 329.17 222.82 329.17" id="a1zvCvul99"></path><path d="M540.2 275.33L474.67 330.37C437.93 255.83 417.52 214.43 413.44 206.15C413.44 206.15 408.68 194.18 371.6 197.68C371.6 197.68 368.8 301.92 367.4 342.49C366.04 382.13 371.79 533.01 372.06 539.99C374.6 539.99 394.92 539.99 397.46 539.99C403.43 539.99 408.44 535.47 409.05 529.53C409.65 523.66 412.66 494.28 418.08 441.4L421.5 405.92C411.99 360.03 406.7 334.53 405.65 329.43C405.65 329.43 429.43 384 457.88 408.72C473.74 417.35 543.7 345.99 559.09 315.91C549.3 296.32 540.2 275.33 540.2 275.33" id="aP1I343O3"></path><path d="M406.14 333.3C405.81 333.3 405.52 333.05 405.48 332.71C405.03 328.43 401.37 294.19 400.91 289.91C400.87 289.54 401.13 289.21 401.5 289.17C401.84 289.14 402.19 289.4 402.23 289.76C402.69 294.04 406.35 328.28 406.81 332.56C406.85 332.93 406.58 333.26 406.22 333.3C406.19 333.3 406.17 333.3 406.14 333.3" id="b7sFqx9ha"></path><path d="M465.61 362.05C465.55 362.05 465.48 362.04 465.42 362.03C465.07 361.92 464.87 361.55 464.97 361.2C465.88 358.1 473.13 333.28 474.03 330.18C474.13 329.86 474.44 329.67 474.77 329.71C475.1 329.76 475.34 330.04 475.34 330.37C475.33 331.19 475.05 350.52 471.44 358.08C471.28 358.41 470.88 358.55 470.55 358.39C470.22 358.23 470.08 357.84 470.24 357.51C472.58 352.59 473.48 342.09 473.81 335.68C473.06 338.27 467 358.98 466.25 361.57C466.16 361.86 465.9 362.05 465.61 362.05" id="b4Ry8aZsSI"></path><path d="M275.76 333.33C275.1 333.33 274.53 332.84 274.44 332.17C274.38 331.75 268.94 289.24 275.84 247.83C283.63 201.12 306.24 199.88 307.2 199.85C307.96 199.81 308.55 200.4 308.57 201.14C308.59 201.87 308.02 202.48 307.29 202.51C307.04 202.52 285.86 203.95 278.47 248.27C271.64 289.27 277.02 331.4 277.08 331.82C277.17 332.55 276.66 333.22 275.93 333.32C275.87 333.33 275.81 333.33 275.76 333.33" id="f4kTZmNmGl"></path><path d="M373 282.26C372.95 282.26 372.9 282.26 372.84 282.25C372.12 282.17 371.59 281.5 371.68 280.77C371.7 280.54 374.28 256.98 362.68 229.68C351.33 202.97 340.89 200.4 340.78 200.38C340.07 200.23 339.61 199.53 339.76 198.81C339.9 198.1 340.58 197.63 341.3 197.77C341.78 197.86 353.1 200.33 365.13 228.64C377.03 256.63 374.44 280.1 374.32 281.08C374.24 281.76 373.67 282.26 373 282.26" id="bpuLlJLs"></path><path d="M288.81 332C288.81 338.82 283.28 344.35 276.46 344.35C269.63 344.35 264.1 338.82 264.1 332C264.1 325.18 269.63 319.64 276.46 319.64C283.28 319.64 288.81 325.18 288.81 332" id="aCWIxZzhl"></path><path d="M284 330.21C285.27 335.87 280.33 340.81 274.67 339.55C271.83 338.91 269.54 336.62 268.91 333.79C267.64 328.12 272.58 323.18 278.25 324.45C281.08 325.09 283.37 327.37 284 330.21" id="a3DRwfQKyM"></path><path d="M370.9 357.92C370.8 357.92 370.71 357.91 370.61 357.89C370.05 357.76 365.63 356.76 365.07 356.64C364.35 356.47 363.91 355.76 364.07 355.04C364.23 354.32 364.94 353.88 365.66 354.04C366.09 354.14 369.56 354.92 369.99 355.02C371.65 349.64 378.52 326.88 380.66 312.06C382.4 300 380.93 288.84 377.02 284.29C375.86 282.94 374.55 282.25 373.11 282.24C373.07 282.24 373.02 282.24 372.98 282.24C367.36 282.24 359.61 284.9 356.31 306.95C353.56 325.36 351.99 347.52 351.63 353C352.18 353.06 356.57 353.54 357.11 353.6C357.84 353.68 358.37 354.34 358.29 355.07C358.21 355.8 357.55 356.32 356.82 356.25C356.15 356.18 350.75 355.58 350.07 355.51C349.37 355.43 348.85 354.81 348.89 354.1C348.91 353.84 350.51 327.74 353.68 306.56C356.44 288.07 362.65 279.46 373.13 279.58C375.34 279.6 377.38 280.63 379.04 282.55C383.49 287.74 385.16 299.47 383.3 312.43C380.84 329.48 372.26 356.72 372.17 356.99C371.99 357.56 371.47 357.92 370.9 357.92" id="f2xDhNBoBh"></path><path d="M356.21 352.13C355.84 355.3 355.63 357.06 355.59 357.42C355.59 357.42 358.39 358.97 359.32 355.55C359.94 352.13 356.21 352.13 356.21 352.13" id="aLFHlwNCY"></path><path d="M366.69 352.78C365.9 355.87 365.46 357.59 365.37 357.93C365.37 357.93 362.2 358.38 362.56 354.85C363.21 351.44 366.69 352.78 366.69 352.78" id="e1XRmYkA0x"></path></defs><g><g><g><use xlink:href="#a1qw9fALu2" opacity="1" fill="#a5e1f5" fill-opacity="1"></use><g><use xlink:href="#a1qw9fALu2" opacity="1" fill-opacity="0" stroke="#000000" stroke-width="1" stroke-opacity="0"></use></g></g><g><use xlink:href="#apGwdZz7a" opacity="1" fill="#a5e1f5" fill-opacity="1"></use><g><use xlink:href="#apGwdZz7a" opacity="1" fill-opacity="0" stroke="#000000" stroke-width="1" stroke-opacity="0"></use></g></g><g><use xlink:href="#bj8vbJxp8" opacity="1" fill="#f79873" fill-opacity="1"></use><g><use xlink:href="#bj8vbJxp8" opacity="1" fill-opacity="0" stroke="#000000" stroke-width="1" stroke-opacity="0"></use></g></g><g><use xlink:href="#aqbJDO0L8" opacity="1" fill="#487fc6" fill-opacity="1"></use><g><use xlink:href="#aqbJDO0L8" opacity="1" fill-opacity="0" stroke="#000000" stroke-width="1" stroke-opacity="0"></use></g></g><g><use xlink:href="#a5U8fiduCu" opacity="1" fill="#649bc4" fill-opacity="1"></use><g><use xlink:href="#a5U8fiduCu" opacity="1" fill-opacity="0" stroke="#000000" stroke-width="1" stroke-opacity="0"></use></g></g><g><use xlink:href="#b2PNLsO63r" opacity="1" fill="#3a6aad" fill-opacity="1"></use><g><use xlink:href="#b2PNLsO63r" opacity="1" fill-opacity="0" stroke="#000000" stroke-width="1" stroke-opacity="0"></use></g></g><g><use xlink:href="#a5gkD7YTaU" opacity="1" fill="#f79873" fill-opacity="1"></use><g><use xlink:href="#a5gkD7YTaU" opacity="1" fill-opacity="0" stroke="#000000" stroke-width="1" stroke-opacity="0"></use></g></g><g><use xlink:href="#c2TAe75jm5" opacity="1" fill="#3a6aad" fill-opacity="1"></use><g><use xlink:href="#c2TAe75jm5" opacity="1" fill-opacity="0" stroke="#000000" stroke-width="1" stroke-opacity="0"></use></g></g><g><use xlink:href="#beN7pkNPq" opacity="1" fill="#fcdad7" fill-opacity="1"></use><g><use xlink:href="#beN7pkNPq" opacity="1" fill-opacity="0" stroke="#000000" stroke-width="1" stroke-opacity="0"></use></g></g><g><use xlink:href="#d9vqFYCPL" opacity="1" fill="#f79873" fill-opacity="1"></use><g><use xlink:href="#d9vqFYCPL" opacity="1" fill-opacity="0" stroke="#000000" stroke-width="1" stroke-opacity="0"></use></g></g><g><use xlink:href="#bZDzngaa5" opacity="1" fill="#3a6aad" fill-opacity="1"></use><g><use xlink:href="#bZDzngaa5" opacity="1" fill-opacity="0" stroke="#000000" stroke-width="1" stroke-opacity="0"></use></g></g><g><use xlink:href="#i1iA8wnoLD" opacity="1" fill="#fcdad7" fill-opacity="1"></use><g><use xlink:href="#i1iA8wnoLD" opacity="1" fill-opacity="0" stroke="#000000" stroke-width="1" stroke-opacity="0"></use></g></g><g><use xlink:href="#c6u9zOZxu" opacity="1" fill="#f79873" fill-opacity="1"></use><g><use xlink:href="#c6u9zOZxu" opacity="1" fill-opacity="0" stroke="#000000" stroke-width="1" stroke-opacity="0"></use></g></g><g><use xlink:href="#a5eAK5ijim" opacity="1" fill="#3a6aad" fill-opacity="1"></use><g><use xlink:href="#a5eAK5ijim" opacity="1" fill-opacity="0" stroke="#000000" stroke-width="1" stroke-opacity="0"></use></g></g><g><use xlink:href="#dx66mFqE" opacity="1" fill="#fcdad7" fill-opacity="1"></use><g><use xlink:href="#dx66mFqE" opacity="1" fill-opacity="0" stroke="#000000" stroke-width="1" stroke-opacity="0"></use></g></g><g><use xlink:href="#b2COvcYGkS" opacity="1" fill="#f79873" fill-opacity="1"></use><g><use xlink:href="#b2COvcYGkS" opacity="1" fill-opacity="0" stroke="#000000" stroke-width="1" stroke-opacity="0"></use></g></g><g><use xlink:href="#i18YBmlZXF" opacity="1" fill="#3a6aad" fill-opacity="1"></use><g><use xlink:href="#i18YBmlZXF" opacity="1" fill-opacity="0" stroke="#000000" stroke-width="1" stroke-opacity="0"></use></g></g><g><use xlink:href="#aQHHv9USr" opacity="1" fill="#fcdad7" fill-opacity="1"></use><g><use xlink:href="#aQHHv9USr" opacity="1" fill-opacity="0" stroke="#000000" stroke-width="1" stroke-opacity="0"></use></g></g><g><use xlink:href="#a2jBKMo1G4" opacity="1" fill="#487fc6" fill-opacity="1"></use><g><use xlink:href="#a2jBKMo1G4" opacity="1" fill-opacity="0" stroke="#000000" stroke-width="1" stroke-opacity="0"></use></g></g><g><use xlink:href="#bGgzj6PY" opacity="1" fill="#649bc4" fill-opacity="1"></use><g><use xlink:href="#bGgzj6PY" opacity="1" fill-opacity="0" stroke="#000000" stroke-width="1" stroke-opacity="0"></use></g></g><g><use xlink:href="#b1UHIvi5k5" opacity="1" fill="#ffffff" fill-opacity="1"></use><g><use xlink:href="#b1UHIvi5k5" opacity="1" fill-opacity="0" stroke="#000000" stroke-width="1" stroke-opacity="0"></use></g></g><g><use xlink:href="#azooOSV7c" opacity="1" fill="#8464b9" fill-opacity="1"></use><g><use xlink:href="#azooOSV7c" opacity="1" fill-opacity="0" stroke="#000000" stroke-width="1" stroke-opacity="0"></use></g></g><g><use xlink:href="#b1fTC2ma7V" opacity="1" fill="#ffffff" fill-opacity="1"></use><g><use xlink:href="#b1fTC2ma7V" opacity="1" fill-opacity="0" stroke="#000000" stroke-width="1" stroke-opacity="0"></use></g></g><g><use xlink:href="#c1QcRPaitO" opacity="1" fill="#8464b9" fill-opacity="1"></use><g><use xlink:href="#c1QcRPaitO" opacity="1" fill-opacity="0" stroke="#000000" stroke-width="1" stroke-opacity="0"></use></g></g><g><use xlink:href="#a2DMLH1iKi" opacity="1" fill="#8464b9" fill-opacity="1"></use><g><use xlink:href="#a2DMLH1iKi" opacity="1" fill-opacity="0" stroke="#000000" stroke-width="1" stroke-opacity="0"></use></g></g><g><use xlink:href="#e7tH6l8XPV" opacity="1" fill="#f4cda9" fill-opacity="1"></use><g><use xlink:href="#e7tH6l8XPV" opacity="1" fill-opacity="0" stroke="#000000" stroke-width="1" stroke-opacity="0"></use></g></g><g><use xlink:href="#a2MSS18iRv" opacity="1" fill="#3a6aad" fill-opacity="1"></use><g><use xlink:href="#a2MSS18iRv" opacity="1" fill-opacity="0" stroke="#000000" stroke-width="1" stroke-opacity="0"></use></g></g><g><use xlink:href="#dVsDFMmaW" opacity="1" fill="#f4cda9" fill-opacity="1"></use><g><use xlink:href="#dVsDFMmaW" opacity="1" fill-opacity="0" stroke="#000000" stroke-width="1" stroke-opacity="0"></use></g></g><g><use xlink:href="#ccnQTkIEO" opacity="1" fill="#3a6aad" fill-opacity="1"></use><g><use xlink:href="#ccnQTkIEO" opacity="1" fill-opacity="0" stroke="#000000" stroke-width="1" stroke-opacity="0"></use></g></g><g><use xlink:href="#kombqqpBq" opacity="1" fill="#3a6aad" fill-opacity="1"></use><g><use xlink:href="#kombqqpBq" opacity="1" fill-opacity="0" stroke="#000000" stroke-width="1" stroke-opacity="0"></use></g></g><g><use xlink:href="#a3oTSRQxiU" opacity="1" fill="#3a6aad" fill-opacity="1"></use><g><use xlink:href="#a3oTSRQxiU" opacity="1" fill-opacity="0" stroke="#000000" stroke-width="1" stroke-opacity="0"></use></g></g><g><use xlink:href="#a6pNgGcZP" opacity="1" fill="#3a6aad" fill-opacity="1"></use><g><use xlink:href="#a6pNgGcZP" opacity="1" fill-opacity="0" stroke="#000000" stroke-width="1" stroke-opacity="0"></use></g></g><g><use xlink:href="#b5mccH7TY7" opacity="1" fill="#3a6aad" fill-opacity="1"></use><g><use xlink:href="#b5mccH7TY7" opacity="1" fill-opacity="0" stroke="#000000" stroke-width="1" stroke-opacity="0"></use></g></g><g><use xlink:href="#b6swoRQhF" opacity="1" fill="#6accaf" fill-opacity="1"></use><g><use xlink:href="#b6swoRQhF" opacity="1" fill-opacity="0" stroke="#000000" stroke-width="1" stroke-opacity="0"></use></g></g><g><use xlink:href="#c5dL5QNhwk" opacity="1" fill="#3a6aad" fill-opacity="1"></use><g><use xlink:href="#c5dL5QNhwk" opacity="1" fill-opacity="0" stroke="#000000" stroke-width="1" stroke-opacity="0"></use></g></g><g><use xlink:href="#b3K9B9GuaB" opacity="1" fill="#ffffff" fill-opacity="1"></use><g><use xlink:href="#b3K9B9GuaB" opacity="1" fill-opacity="0" stroke="#000000" stroke-width="1" stroke-opacity="0"></use></g></g><g><use xlink:href="#de0I8H7p1" opacity="1" fill="#3a6aad" fill-opacity="1"></use><g><use xlink:href="#de0I8H7p1" opacity="1" fill-opacity="0" stroke="#000000" stroke-width="1" stroke-opacity="0"></use></g></g><g><use xlink:href="#b3VAa0yYw" opacity="1" fill="#3a6aad" fill-opacity="1"></use><g><use xlink:href="#b3VAa0yYw" opacity="1" fill-opacity="0" stroke="#000000" stroke-width="1" stroke-opacity="0"></use></g></g><g><use xlink:href="#a1zvCvul99" opacity="1" fill="#3a6aad" fill-opacity="1"></use><g><use xlink:href="#a1zvCvul99" opacity="1" fill-opacity="0" stroke="#000000" stroke-width="1" stroke-opacity="0"></use></g></g><g><use xlink:href="#aP1I343O3" opacity="1" fill="#ffffff" fill-opacity="1"></use><g><use xlink:href="#aP1I343O3" opacity="1" fill-opacity="0" stroke="#000000" stroke-width="1" stroke-opacity="0"></use></g></g><g><use xlink:href="#b7sFqx9ha" opacity="1" fill="#3a6aad" fill-opacity="1"></use><g><use xlink:href="#b7sFqx9ha" opacity="1" fill-opacity="0" stroke="#000000" stroke-width="1" stroke-opacity="0"></use></g></g><g><use xlink:href="#b4Ry8aZsSI" opacity="1" fill="#3a6aad" fill-opacity="1"></use><g><use xlink:href="#b4Ry8aZsSI" opacity="1" fill-opacity="0" stroke="#000000" stroke-width="1" stroke-opacity="0"></use></g></g><g><use xlink:href="#f4kTZmNmGl" opacity="1" fill="#211d1d" fill-opacity="1"></use><g><use xlink:href="#f4kTZmNmGl" opacity="1" fill-opacity="0" stroke="#000000" stroke-width="1" stroke-opacity="0"></use></g></g><g><use xlink:href="#bpuLlJLs" opacity="1" fill="#211d1d" fill-opacity="1"></use><g><use xlink:href="#bpuLlJLs" opacity="1" fill-opacity="0" stroke="#000000" stroke-width="1" stroke-opacity="0"></use></g></g><g><use xlink:href="#aCWIxZzhl" opacity="1" fill="#b7c4dc" fill-opacity="1"></use><g><use xlink:href="#aCWIxZzhl" opacity="1" fill-opacity="0" stroke="#000000" stroke-width="1" stroke-opacity="0"></use></g></g><g><use xlink:href="#a3DRwfQKyM" opacity="1" fill="#649bc4" fill-opacity="1"></use><g><use xlink:href="#a3DRwfQKyM" opacity="1" fill-opacity="0" stroke="#000000" stroke-width="1" stroke-opacity="0"></use></g></g><g><use xlink:href="#f2xDhNBoBh" opacity="1" fill="#b7c4dc" fill-opacity="1"></use><g><use xlink:href="#f2xDhNBoBh" opacity="1" fill-opacity="0" stroke="#000000" stroke-width="1" stroke-opacity="0"></use></g></g><g><use xlink:href="#aLFHlwNCY" opacity="1" fill="#649bc4" fill-opacity="1"></use><g><use xlink:href="#aLFHlwNCY" opacity="1" fill-opacity="0" stroke="#000000" stroke-width="1" stroke-opacity="0"></use></g></g><g><use xlink:href="#e1XRmYkA0x" opacity="1" fill="#649bc4" fill-opacity="1"></use><g><use xlink:href="#e1XRmYkA0x" opacity="1" fill-opacity="0" stroke="#000000" stroke-width="1" stroke-opacity="0"></use></g></g></g></g></svg>